<svg width="199" height="217" viewBox="0 0 199 217" fill="none" xmlns="http://www.w3.org/2000/svg">
<path d="M65 78.5455C65 74.9305 67.9305 72 71.5454 72H72.013C75.6279 72 78.5584 74.9305 78.5584 78.5455V137.455C78.5584 141.069 75.6279 144 72.013 144H71.5454C67.9305 144 65 141.069 65 137.455V78.5455Z" fill="#FF5138"/>
<path d="M70.3088 88.0212C68.0818 85.0115 68.7162 80.7663 71.7259 78.5392L77.1666 74.5134L106.557 114.232C108.707 117.138 108.094 121.237 105.189 123.387L104.822 123.659C101.916 125.809 97.8169 125.196 95.6666 122.29L70.3088 88.0212Z" fill="#FF5138"/>
<path d="M124.729 74.6609L130.255 78.7503C133.263 80.9755 133.897 85.2173 131.671 88.2245L106.461 122.294C104.311 125.2 100.212 125.813 97.3062 123.662L96.8578 123.331C93.9519 121.18 93.3393 117.082 95.4896 114.176L124.729 74.6609Z" fill="#FF5138"/>
<path d="M123.442 78.5455C123.442 74.9305 126.372 72 129.987 72H130.455C134.07 72 137 74.9305 137 78.5455V137.455C137 141.069 134.07 144 130.455 144H129.987C126.372 144 123.442 141.069 123.442 137.455V78.5455Z" fill="#FF5138"/>
<path fill-rule="evenodd" clip-rule="evenodd" d="M111.676 3.3758L185.926 45.2679C193.631 49.6151 198.386 57.6986 198.386 66.4525V149.855C198.386 158.609 193.631 166.692 185.926 171.039L111.676 212.931C104.062 217.228 94.7094 217.228 87.0946 212.931L12.8446 171.039C5.13954 166.692 0.385498 158.609 0.385498 149.855V66.4525C0.385498 57.6986 5.13954 49.6151 12.8446 45.2679L87.0946 3.3758C94.7094 -0.920514 104.062 -0.920514 111.676 3.3758ZM111.496 39.4079C103.882 35.1116 94.5294 35.1116 86.9146 39.4079L44.3446 63.4261C36.6395 67.7733 31.8855 75.8568 31.8855 84.6106V132.265C31.8855 141.019 36.6395 149.102 44.3446 153.449L86.9146 177.468C94.5294 181.764 103.882 181.764 111.496 177.468L154.066 153.449C161.771 149.102 166.525 141.019 166.525 132.265V84.6106C166.525 75.8568 161.771 67.7733 154.066 63.4261L111.496 39.4079Z" fill="#FF5138"/>
<path fill-rule="evenodd" clip-rule="evenodd" d="M111.676 3.3758L185.926 45.2679C193.631 49.6151 198.386 57.6986 198.386 66.4525V149.855C198.386 158.609 193.631 166.692 185.926 171.039L111.676 212.931C104.062 217.228 94.7094 217.228 87.0946 212.931L12.8446 171.039C5.13954 166.692 0.385498 158.609 0.385498 149.855V66.4525C0.385498 57.6986 5.13954 49.6151 12.8446 45.2679L87.0946 3.3758C94.7094 -0.920514 104.062 -0.920514 111.676 3.3758ZM111.496 39.4079C103.882 35.1116 94.5294 35.1116 86.9146 39.4079L44.3446 63.4261C36.6395 67.7733 31.8855 75.8568 31.8855 84.6106V132.265C31.8855 141.019 36.6395 149.102 44.3446 153.449L86.9146 177.468C94.5294 181.764 103.882 181.764 111.496 177.468L154.066 153.449C161.771 149.102 166.525 141.019 166.525 132.265V84.6106C166.525 75.8568 161.771 67.7733 154.066 63.4261L111.496 39.4079Z" fill="#FF5138"/>
<path fill-rule="evenodd" clip-rule="evenodd" d="M111.676 3.3758L185.926 45.2679C193.631 49.6151 198.386 57.6986 198.386 66.4525V149.855C198.386 158.609 193.631 166.692 185.926 171.039L111.676 212.931C104.062 217.228 94.7094 217.228 87.0946 212.931L12.8446 171.039C5.13954 166.692 0.385498 158.609 0.385498 149.855V66.4525C0.385498 57.6986 5.13954 49.6151 12.8446 45.2679L87.0946 3.3758C94.7094 -0.920514 104.062 -0.920514 111.676 3.3758ZM111.496 39.4079C103.882 35.1116 94.5294 35.1116 86.9146 39.4079L44.3446 63.4261C36.6395 67.7733 31.8855 75.8568 31.8855 84.6106V132.265C31.8855 141.019 36.6395 149.102 44.3446 153.449L86.9146 177.468C94.5294 181.764 103.882 181.764 111.496 177.468L154.066 153.449C161.771 149.102 166.525 141.019 166.525 132.265V84.6106C166.525 75.8568 161.771 67.7733 154.066 63.4261L111.496 39.4079Z" fill="#FF5138"/>
</svg>
