<svg width="389" height="392" viewBox="0 0 389 392" fill="none" xmlns="http://www.w3.org/2000/svg">
<path d="M255 253.545C255 249.93 257.93 247 261.545 247H262.013C265.628 247 268.558 249.931 268.558 253.545V312.455C268.558 316.069 265.628 319 262.013 319H261.545C257.93 319 255 316.069 255 312.455V253.545Z" fill="#FF5138"/>
<path d="M260.309 263.021C258.082 260.012 258.716 255.766 261.726 253.539L267.167 249.513L296.557 289.232C298.707 292.138 298.094 296.237 295.189 298.387L294.822 298.659C291.916 300.809 287.817 300.196 285.667 297.29L260.309 263.021Z" fill="#FF5138"/>
<path d="M314.729 249.661L320.255 253.75C323.263 255.976 323.897 260.217 321.671 263.225L296.461 297.294C294.311 300.2 290.212 300.813 287.306 298.662L286.858 298.331C283.952 296.18 283.339 292.082 285.49 289.176L314.729 249.661Z" fill="#FF5138"/>
<path d="M313.442 253.545C313.442 249.93 316.372 247 319.987 247H320.455C324.07 247 327 249.931 327 253.545V312.455C327 316.069 324.07 319 320.455 319H319.987C316.372 319 313.442 316.069 313.442 312.455V253.545Z" fill="#FF5138"/>
<path fill-rule="evenodd" clip-rule="evenodd" d="M301.676 178.376L375.926 220.268C383.631 224.615 388.385 232.699 388.385 241.452V324.855C388.385 333.609 383.631 341.692 375.926 346.039L301.676 387.931C294.062 392.228 284.709 392.228 277.095 387.931L202.845 346.039C195.139 341.692 190.385 333.609 190.385 324.855V241.452C190.385 232.699 195.139 224.615 202.845 220.268L277.095 178.376C284.709 174.079 294.062 174.079 301.676 178.376ZM301.496 214.408C293.882 210.112 284.529 210.112 276.915 214.408L234.345 238.426C226.639 242.773 221.885 250.857 221.885 259.611V307.265C221.885 316.019 226.639 324.102 234.345 328.449L276.915 352.468C284.529 356.764 293.882 356.764 301.496 352.468L344.066 328.449C351.771 324.102 356.525 316.019 356.525 307.265V259.611C356.525 250.857 351.771 242.773 344.066 238.426L301.496 214.408Z" fill="#FF5138"/>
<path fill-rule="evenodd" clip-rule="evenodd" d="M301.676 178.376L375.926 220.268C383.631 224.615 388.385 232.699 388.385 241.452V324.855C388.385 333.609 383.631 341.692 375.926 346.039L301.676 387.931C294.062 392.228 284.709 392.228 277.095 387.931L202.845 346.039C195.139 341.692 190.385 333.609 190.385 324.855V241.452C190.385 232.699 195.139 224.615 202.845 220.268L277.095 178.376C284.709 174.079 294.062 174.079 301.676 178.376ZM301.496 214.408C293.882 210.112 284.529 210.112 276.915 214.408L234.345 238.426C226.639 242.773 221.885 250.857 221.885 259.611V307.265C221.885 316.019 226.639 324.102 234.345 328.449L276.915 352.468C284.529 356.764 293.882 356.764 301.496 352.468L344.066 328.449C351.771 324.102 356.525 316.019 356.525 307.265V259.611C356.525 250.857 351.771 242.773 344.066 238.426L301.496 214.408Z" fill="#FF5138"/>
<path fill-rule="evenodd" clip-rule="evenodd" d="M301.676 178.376L375.926 220.268C383.631 224.615 388.385 232.699 388.385 241.452V324.855C388.385 333.609 383.631 341.692 375.926 346.039L301.676 387.931C294.062 392.228 284.709 392.228 277.095 387.931L202.845 346.039C195.139 341.692 190.385 333.609 190.385 324.855V241.452C190.385 232.699 195.139 224.615 202.845 220.268L277.095 178.376C284.709 174.079 294.062 174.079 301.676 178.376ZM301.496 214.408C293.882 210.112 284.529 210.112 276.915 214.408L234.345 238.426C226.639 242.773 221.885 250.857 221.885 259.611V307.265C221.885 316.019 226.639 324.102 234.345 328.449L276.915 352.468C284.529 356.764 293.882 356.764 301.496 352.468L344.066 328.449C351.771 324.102 356.525 316.019 356.525 307.265V259.611C356.525 250.857 351.771 242.773 344.066 238.426L301.496 214.408Z" fill="#FF5138"/>
<path fill-rule="evenodd" clip-rule="evenodd" d="M216 6.75V55.1523C208.135 57.9322 202.5 65.433 202.5 74.25C202.5 85.4338 211.566 94.5 222.75 94.5C233.934 94.5 243 85.4338 243 74.25C243 65.433 237.365 57.9322 229.5 55.1523V6.75C229.5 3.02208 226.478 0 222.75 0C219.022 0 216 3.02208 216 6.75ZM275.062 27C291.938 27 297 39.15 297 47.925V167.538H283.5V47.925C283.5 43.0313 280.125 40.5 275.062 40.5L249.75 40.5C246.022 40.5 243 37.4779 243 33.75C243 30.0221 246.022 27 249.75 27H275.062ZM182.769 283.5H21.9375C16.875 283.5 13.5 280.969 13.5 276.075L13.5 48.9375C13.5 43.875 16.0312 40.5 20.925 40.5H47.25C50.9779 40.5 54 37.4779 54 33.75C54 30.0221 50.9779 27 47.25 27H20.925C12.15 27 0 32.0625 0 48.9375V276.075C0 284.85 5.0625 297 21.9375 297H182.769V283.5ZM27 114.75C27 111.022 30.0221 108 33.75 108H263.25C266.978 108 270 111.022 270 114.75C270 118.478 266.978 121.5 263.25 121.5H33.75C30.0221 121.5 27 118.478 27 114.75ZM229.5 74.25C229.5 77.9779 226.478 81 222.75 81C219.022 81 216 77.9779 216 74.25C216 70.5221 219.022 67.5 222.75 67.5C226.478 67.5 229.5 70.5221 229.5 74.25ZM94.5 74.25C94.5 85.4338 85.4338 94.5 74.25 94.5C63.0662 94.5 54 85.4338 54 74.25C54 65.433 59.635 57.9322 67.5 55.1523V6.75C67.5 3.02208 70.5221 0 74.25 0C77.9779 0 81 3.02208 81 6.75V55.1523C88.8651 57.9322 94.5 65.433 94.5 74.25ZM81 74.25C81 77.9779 77.9779 81 74.25 81C70.5221 81 67.5 77.9779 67.5 74.25C67.5 70.5221 70.5221 67.5 74.25 67.5C77.9779 67.5 81 70.5221 81 74.25ZM94.5 33.75C94.5 30.0221 97.5221 27 101.25 27H195.75C199.478 27 202.5 30.0221 202.5 33.75C202.5 37.4779 199.478 40.5 195.75 40.5H101.25C97.5221 40.5 94.5 37.4779 94.5 33.75Z" fill="black"/>
</svg>
